<svg xmlns="http://www.w3.org/2000/svg" viewBox="0 0 16 11.68"><defs><style>.cls-1{fill:#0e7ae6;}</style></defs><g id="Layer_2" data-name="Layer 2"><g id="Layer_1-2" data-name="Layer 1"><path class="cls-1" d="M.32,4.32a1.07,1.07,0,0,0,1.45.08,9.85,9.85,0,0,1,12.45,0,1.08,1.08,0,0,0,1.46-.07A1.1,1.1,0,0,0,15.6,2.7,12,12,0,0,0,.4,2.7,1.09,1.09,0,0,0,.32,4.32Zm6,6,1.14,1.13a.77.77,0,0,0,1.09,0l1.13-1.13A.77.77,0,0,0,9.5,9.09a3.29,3.29,0,0,0-3,0A.79.79,0,0,0,6.31,10.32ZM3.44,7.44a1.1,1.1,0,0,0,1.41.1,5.44,5.44,0,0,1,6.3,0,1.12,1.12,0,0,0,1.41-.1h0a1.08,1.08,0,0,0-.1-1.63,7.66,7.66,0,0,0-8.94,0A1.08,1.08,0,0,0,3.44,7.44Z"/></g></g></svg>