<!-- Generated by IcoMoon.io -->
<svg version="1.1" xmlns="http://www.w3.org/2000/svg" width="1057" height="1024" viewBox="0 0 1057 1024">
<title></title>
<g id="icomoon-ignore">
</g>
<path d="M954.571 604.964h-149.085v-259.66c0-9.114-7.386-16.505-16.505-16.505s-16.505 7.386-16.505 16.505v0 259.66h-700.854c0 0 0 0-0.001 0-39.556 0-71.636 31.988-71.789 71.501v275.080c0.16 39.533 32.24 71.522 71.789 71.522 0 0 0 0 0.001 0h882.945c0 0 0 0 0.001 0 39.556 0 71.636-31.988 71.789-71.501v-275.080c-0.16-39.533-32.24-71.522-71.789-71.522 0 0 0 0-0.001 0v0zM993.359 952.65c-0.76 20.818-17.816 37.406-38.761 37.406-0.013 0-0.024 0-0.032 0h-882.943c0 0-0.001 0-0.001 0-21.329 0-38.626-17.209-38.789-38.491v-275.080c0.16-21.302 17.46-38.511 38.789-38.511 0 0 0.001 0 0.001 0h882.945c0 0 0.001 0 0.001 0 21.329 0 38.626 17.209 38.789 38.491v0.021z"></path>
<path d="M1052.774 120.042c-63.005-73.772-156.108-120.261-260.075-120.261s-197.078 46.467-259.686 119.781l-0.397 0.48c-2.463 2.91-3.979 6.693-3.979 10.841 0 4.973 2.165 9.441 5.603 12.516l0.022 0.019c2.892 2.53 6.693 4.085 10.871 4.085 4.991 0 9.464-2.207 12.499-5.724l0.025-0.029c56.873-66.803 141.044-108.914 235.044-108.914s178.17 42.111 234.685 108.484l0.352 0.43c3.038 3.549 7.528 5.785 12.545 5.785 0.032 0 0.084 0 0.113 0h-0.008c0.008 0 0.019 0 0.029 0 4.125 0 7.896-1.566 10.712-4.13l-0.018 0.017c3.524-3.038 5.731-7.514 5.731-12.503 0-4.18-1.554-7.981-4.107-10.898l0.022 0.025z"></path>
<path d="M957.603 215.757c3.038 3.549 7.528 5.785 12.545 5.785 0.032 0 0.084 0 0.113 0h-0.008c4.082-0.024 7.835-1.466 10.763-3.869l-0.032 0.032c3.613-3.039 5.901-7.578 5.901-12.635 0-4.117-1.502-7.871-3.997-10.764l0.025 0.031c-45.494-55.063-113.781-89.889-190.207-89.889s-144.713 34.823-189.867 89.474l-0.34 0.416c-2.399 2.883-3.868 6.619-3.868 10.712 0 5.051 2.23 9.576 5.767 12.656l0.028 0.024c2.846 2.399 6.555 3.865 10.598 3.865 5.146 0 9.73-2.34 12.759-6.036l0.032-0.032c39.345-48.003 98.648-78.404 165.037-78.404s125.704 30.401 164.736 78.032l0.29 0.372z"></path>
<path d="M792.837 208.61c-49.039 0.249-92.572 23.678-120.204 59.874l-0.276 0.362c-2.182 2.782-3.488 6.321-3.488 10.181 0 9.148 7.413 16.56 16.56 16.56 5.287 0 10.009-2.478 13.035-6.355l0.032-0.032c21.646-28.948 55.825-47.489 94.352-47.489s72.705 18.541 94.121 47.186l0.224 0.302c2.943 3.869 7.544 6.327 12.72 6.327 0.075 0 0.15 0 0.224-0.001h-0.015c0.001 0 0.003 0 0.006 0 3.818 0 7.357-1.248 10.218-3.339l-0.043 0.032c3.933-3.102 6.446-7.869 6.446-13.216 0-3.836-1.291-7.378-3.453-10.201l0.032 0.032c-27.935-36.539-71.447-59.949-120.43-60.236h-0.042z"></path>
<path d="M160.192 714.997c-24.307 0-44.014 19.707-44.014 44.014s19.707 44.014 44.014 44.014c24.307 0 44.014-19.707 44.014-44.014v0c0-24.307-19.707-44.014-44.014-44.014v0zM160.192 770.014c-6.077 0-11.003-4.926-11.003-11.003s4.926-11.003 11.003-11.003c6.077 0 11.003 4.926 11.003 11.003v0c0 6.077-4.926 11.003-11.003 11.003v0z"></path>
<path d="M297.717 714.997c-24.307 0-44.014 19.707-44.014 44.014s19.707 44.014 44.014 44.014c24.307 0 44.014-19.707 44.014-44.014v0c0-24.307-19.707-44.014-44.014-44.014v0zM297.717 770.014c-6.077 0-11.003-4.926-11.003-11.003s4.926-11.003 11.003-11.003c6.077 0 11.003 4.926 11.003 11.003v0c0 6.077-4.926 11.003-11.003 11.003v0z"></path>
</svg>
